<svg xmlns="http://www.w3.org/2000/svg" viewBox="0 0 65.36 65.36"><path d="M65.36 32.68a32.68 32.68 0 1 0-32.68 32.68 32.67 32.67 0 0 0 32.68-32.67z" fill="#e97800"/><path fill="#fff" d="M47.95 22.97v-5.75H45.5v5.75h-5.75v2.42h5.75v5.8h2.45v-5.8h5.75v-2.42h-5.75zm-10.34 16.8a8.55 8.55 0 0 0-1.24-1.38c-.47-.43-1-.86-1.45-1.29l-1.65-1.29c-.25-.22-.51-.47-.78-.76a1.71 1.71 0 0 1-.41-1.22 2 2 0 0 1 .41-1.29 10.39 10.39 0 0 1 .87-1 14.94 14.94 0 0 0 1.43-1.18A9.09 9.09 0 0 0 36.07 29a6.33 6.33 0 0 0 .87-1.72 6.91 6.91 0 0 0 .32-2.28 6.92 6.92 0 0 0-.36-2.3A8.35 8.35 0 0 0 36 21a7.28 7.28 0 0 0-1-1.33 11.51 11.51 0 0 0-1-.85h2.85l2.94-1.61h-9.51a19.91 19.91 0 0 0-4.07.46 9.66 9.66 0 0 0-4.14 2.08 8.35 8.35 0 0 0-2.21 2.92 7.86 7.86 0 0 0-.73 3.24 7.24 7.24 0 0 0 .5 2.64 6.9 6.9 0 0 0 1.44 2.32 7.26 7.26 0 0 0 2.39 1.63 8.09 8.09 0 0 0 3.26.62h.74l.73-.07c-.12.27-.23.54-.32.8a3.06 3.06 0 0 0-.14 1 3.33 3.33 0 0 0 .44 1.77 15.67 15.67 0 0 0 .94 1.38c-.52 0-1.13.07-1.83.14a19.2 19.2 0 0 0-2.26.32 19.81 19.81 0 0 0-2.41.62 10.45 10.45 0 0 0-2.27 1 6.56 6.56 0 0 0-3.54 5.61 5.4 5.4 0 0 0 .59 2.46 6.05 6.05 0 0 0 1.84 2.09 10.16 10.16 0 0 0 3.1 1.47 15.23 15.23 0 0 0 4.35.55 16.4 16.4 0 0 0 5.21-.76 11.94 11.94 0 0 0 3.8-2A8.32 8.32 0 0 0 38 46.7a7 7 0 0 0 .79-3.18 6.35 6.35 0 0 0-.33-2.12 6.59 6.59 0 0 0-.85-1.63zm-8.71-7.93a4 4 0 0 1-2.55-.84 7.38 7.38 0 0 1-1.79-2.1 10.41 10.41 0 0 1-1.06-2.67 11.36 11.36 0 0 1-.34-2.59 7.75 7.75 0 0 1 .21-1.79 3.8 3.8 0 0 1 .8-1.62 3.92 3.92 0 0 1 1.42-1.1 4.17 4.17 0 0 1 1.8-.42 3.85 3.85 0 0 1 2.5.85 7.24 7.24 0 0 1 1.82 2.15 11 11 0 0 1 1.1 2.76 11.88 11.88 0 0 1 .37 2.72 8.05 8.05 0 0 1-.18 1.6 3.26 3.26 0 0 1-1 1.75 4.69 4.69 0 0 1-1.4.93 4.46 4.46 0 0 1-1.69.37zM34 48.91a7.81 7.81 0 0 1-5 1.4 10 10 0 0 1-5.91-1.56 4.8 4.8 0 0 1-2.18-4 4 4 0 0 1 .48-2.06 5.18 5.18 0 0 1 1.13-1.38 5.66 5.66 0 0 1 1.31-.85l1-.44c.49-.15 1-.28 1.52-.39a12.14 12.14 0 0 1 1.47-.23q.69-.08 1.2-.09h1.21a2.72 2.72 0 0 1 .49.05Q32 40.23 33 41a10.07 10.07 0 0 1 1.56 1.43 5.31 5.31 0 0 1 .9 1.4 3.94 3.94 0 0 1 .3 1.59A4.4 4.4 0 0 1 34 48.91z"/></svg>