<svg xmlns="http://www.w3.org/2000/svg" viewBox="0 0 115.02 113"><path d="M104.13 113a8.19 8.19 0 0 1-5.77-2.33l-25-24.51-.29-.3-2.56-2.78-3.31 1.75A46.63 46.63 0 0 1 45.8 90a45.94 45.94 0 0 1-32.4-13.16 44.5 44.5 0 0 1 0-63.66 46.41 46.41 0 0 1 64.8 0A44.48 44.48 0 0 1 86.33 66l-1.78 3.3 2.83 2.51.3.29 24.95 24.51a7.92 7.92 0 0 1 0 11.33l-2.74 2.69a8.18 8.18 0 0 1-5.76 2.33zM45.8 14.88a30.76 30.76 0 0 0-21.69 8.83 29.79 29.79 0 0 0 0 42.61 31.08 31.08 0 0 0 43.38 0 29.8 29.8 0 0 0 0-42.61 30.78 30.78 0 0 0-21.69-8.83z" fill="#fff"/></svg>