<svg xmlns="http://www.w3.org/2000/svg" viewBox="0 0 65.36 65.36"><path d="M65.36 32.68a32.68 32.68 0 1 0-32.68 32.68 32.68 32.68 0 0 0 32.68-32.68z" fill="#009fe3"/><path d="M54.1 20.45a17.33 17.33 0 0 1-5 1.36A8.67 8.67 0 0 0 52.94 17a17.13 17.13 0 0 1-5.48 2.09A8.62 8.62 0 0 0 32.77 27 24.55 24.55 0 0 1 15 18a8.65 8.65 0 0 0 2.67 11.51 8.53 8.53 0 0 1-3.91-1.08v.11A8.66 8.66 0 0 0 20.67 37a8.68 8.68 0 0 1-2.27.3 8.81 8.81 0 0 1-1.62-.16 8.63 8.63 0 0 0 8 6 17.27 17.27 0 0 1-10.71 3.7 17.62 17.62 0 0 1-2.07-.11 24.46 24.46 0 0 0 13.24 3.87c15.86 0 24.53-13.14 24.53-24.54V25a17.48 17.48 0 0 0 4.33-4.55z" fill="#fff"/></svg>