<svg xmlns="http://www.w3.org/2000/svg" viewBox="0 0 65.36 65.36"><defs><clipPath id="a"><path d="M32.91 30.42h-.73q-7 0-13.66.27a5.93 5.93 0 0 0-6 5.86c-.19 2.57-.28 5.15-.27 7.72s.08 5.15.27 7.73a5.93 5.93 0 0 0 6 5.88c4.69.2 9.49.28 14.39.27s9.69-.07 14.38-.27a5.93 5.93 0 0 0 6-5.86c.2-2.58.28-5.16.27-7.73s-.07-5.15-.27-7.72a5.93 5.93 0 0 0-6-5.89q-6.69-.27-13.66-.27h-.72" fill="none"/></clipPath><clipPath id="b"><path d="M25.18 8.72l-1.75 7.29h-.18l-1.82-7.29h-2.84l3.35 11.01v7.23h2.82V19.4l3.28-10.68h-2.86z" fill="none"/></clipPath><clipPath id="c"><path d="M30.71 24.67a1.26 1.26 0 0 1-.26-.86v-7.33a.94.94 0 0 1 .28-.71 1 1 0 0 1 .75-.27 1.14 1.14 0 0 1 .79.27.89.89 0 0 1 .31.71v7.33a1.21 1.21 0 0 1-.29.85 1.12 1.12 0 0 1-.81.31 1 1 0 0 1-.77-.3m-1.83-10.58a3.24 3.24 0 0 0-1 2.49v7a3.72 3.72 0 0 0 1 2.73 3.45 3.45 0 0 0 2.62 1 3.61 3.61 0 0 0 2.68-1 3.68 3.68 0 0 0 1-2.71v-7a3.39 3.39 0 0 0-1-2.52 3.44 3.44 0 0 0-2.54-1 3.92 3.92 0 0 0-2.72.92" fill="none"/></clipPath><clipPath id="d"><path d="M41.94 13.51v10.21a3.86 3.86 0 0 1-.78.73 1.45 1.45 0 0 1-.69.28.56.56 0 0 1-.51-.22 1.12 1.12 0 0 1-.16-.69V13.51h-2.5v11.24a3 3 0 0 0 .44 1.81 1.49 1.49 0 0 0 1.3.6 3 3 0 0 0 1.46-.43 5.55 5.55 0 0 0 1.44-1.25V27h2.5V13.51z" fill="none"/></clipPath></defs><path d="M65.36 32.68a32.68 32.68 0 1 0-32.68 32.68 32.68 32.68 0 0 0 32.68-32.68z" fill="#e30613"/><path d="M32.91 30.42h-.73q-7 0-13.66.27a5.93 5.93 0 0 0-6 5.86c-.19 2.57-.28 5.15-.27 7.72s.08 5.15.27 7.73a5.93 5.93 0 0 0 6 5.88c4.69.2 9.49.28 14.39.27s9.69-.07 14.38-.27a5.93 5.93 0 0 0 6-5.86c.2-2.58.28-5.16.27-7.73s-.07-5.15-.27-7.72a5.93 5.93 0 0 0-6-5.89q-6.69-.27-13.66-.27h-.72" fill="#fff"/><path fill="#fff" d="M12.28 30.42h41.25v27.77H12.28z" clip-path="url(#a)"/><path fill="#fff" d="M25.18 8.72l-1.75 7.29h-.18l-1.82-7.29h-2.84l3.35 11.01v7.23h2.82V19.4l3.28-10.68h-2.86z"/><path fill="#fff" d="M18.59 8.72h9.45v18.24h-9.45z" clip-path="url(#b)"/><path d="M30.71 24.67a1.26 1.26 0 0 1-.26-.86v-7.33a.94.94 0 0 1 .28-.71 1 1 0 0 1 .75-.27 1.14 1.14 0 0 1 .79.27.89.89 0 0 1 .31.71v7.33a1.21 1.21 0 0 1-.29.85 1.12 1.12 0 0 1-.81.31 1 1 0 0 1-.77-.3m-1.83-10.58a3.24 3.24 0 0 0-1 2.49v7a3.72 3.72 0 0 0 1 2.73 3.45 3.45 0 0 0 2.62 1 3.61 3.61 0 0 0 2.68-1 3.68 3.68 0 0 0 1-2.71v-7a3.39 3.39 0 0 0-1-2.52 3.44 3.44 0 0 0-2.54-1 3.92 3.92 0 0 0-2.72.92" fill="#fff"/><path fill="#fff" d="M27.91 13.17h7.26v14.14h-7.26z" clip-path="url(#c)"/><path d="M41.94 13.51v10.21a3.86 3.86 0 0 1-.78.73 1.45 1.45 0 0 1-.69.28.56.56 0 0 1-.51-.22 1.12 1.12 0 0 1-.16-.69V13.51h-2.5v11.24a3 3 0 0 0 .44 1.81 1.49 1.49 0 0 0 1.3.6 3 3 0 0 0 1.46-.43 5.55 5.55 0 0 0 1.44-1.25V27h2.5V13.51z" fill="#fff"/><path fill="#fff" d="M37.3 13.51h7.14v13.65H37.3z" clip-path="url(#d)"/><path d="M24.13 34.92h-8.65v2.65h2.92v15.59h2.81V37.57h2.92zm4.6 15a3.51 3.51 0 0 1-.77.72 1.37 1.37 0 0 1-.69.29.58.58 0 0 1-.51-.22 1.12 1.12 0 0 1-.16-.71V39.7h-2.5V51a3 3 0 0 0 .44 1.8 1.49 1.49 0 0 0 1.3.6 2.89 2.89 0 0 0 1.46-.43 5.26 5.26 0 0 0 1.41-1.25v1.49h2.51V39.7h-2.51zm9.7-10.39a2.32 2.32 0 0 0-1.15.33 3.86 3.86 0 0 0-1.08.93v-5.87h-2.49v18.24h2.52v-1a3.32 3.32 0 0 0 1.07.9 2.86 2.86 0 0 0 1.31.3 2 2 0 0 0 1.7-.76 3.57 3.57 0 0 0 .59-2.2v-7.49a4.21 4.21 0 0 0-.63-2.52 2.11 2.11 0 0 0-1.81-.86M38.29 50a1.6 1.6 0 0 1-.21.93.81.81 0 0 1-.68.29 1.24 1.24 0 0 1-.6-.15 2.27 2.27 0 0 1-.6-.47v-8.4a2.29 2.29 0 0 1 .52-.41 1.22 1.22 0 0 1 .53-.13.89.89 0 0 1 .75.34 1.7 1.7 0 0 1 .27 1zm11.82-3.25v-3.43a4.14 4.14 0 0 0-.92-2.93 3.33 3.33 0 0 0-2.63-1 3.65 3.65 0 0 0-2.75 1.11 4 4 0 0 0-1.1 2.82v6a4.48 4.48 0 0 0 1 3 3.33 3.33 0 0 0 2.65 1.11 3.55 3.55 0 0 0 2.8-1 4.55 4.55 0 0 0 .94-3.12v-1h-2.57v.94a3 3 0 0 1-.25 1.53 1 1 0 0 1-.87.35.91.91 0 0 1-.84-.41 3 3 0 0 1-.25-1.47v-2.5zm-4.78-3.45a2.25 2.25 0 0 1 .26-1.22 1 1 0 0 1 .86-.36 1 1 0 0 1 .83.36 2.25 2.25 0 0 1 .26 1.22v1.36h-2.21z" fill="#55514f"/></svg>