<svg xmlns="http://www.w3.org/2000/svg" viewBox="0 0 1299.93 2257.73"><path d="M37.29 1900.66v167H139.1v14.76H20v-181.76zm119.63 70.77a37.67 37.67 0 0 1 11.08-13.76 46.82 46.82 0 0 1 16.42-7.88 79.82 79.82 0 0 1 20.87-2.55 92.43 92.43 0 0 1 17.32 1.65 42.16 42.16 0 0 1 15.53 6.24 34 34 0 0 1 11.18 12.87q4.34 8.27 4.33 21.51v69.74q0 9.68 9.42 9.68a12.57 12.57 0 0 0 5.09-1v13.49c-1.87.34-3.52.6-5 .76a48.63 48.63 0 0 1-5.47.25 24.18 24.18 0 0 1-9.81-1.65 13 13 0 0 1-5.72-4.71 17.63 17.63 0 0 1-2.68-7.25 62.93 62.93 0 0 1-.63-9.29h-.51a107 107 0 0 1-8.79 11.32 43.4 43.4 0 0 1-9.92 8.27 45.76 45.76 0 0 1-12.48 5.1 68.6 68.6 0 0 1-16.67 1.78 66.27 66.27 0 0 1-17.18-2.16 38.52 38.52 0 0 1-14-6.87 33 33 0 0 1-9.42-12 39.93 39.93 0 0 1-3.43-17.2q0-13.74 6.11-21.51a38.38 38.38 0 0 1 16.16-11.83 92.67 92.67 0 0 1 22.65-5.73q12.6-1.65 25.59-3.18 5.08-.51 8.91-1.27a15.48 15.48 0 0 0 6.36-2.68 12.33 12.33 0 0 0 3.94-5.21 22.58 22.58 0 0 0 1.4-8.66q0-8.14-2.67-13.36a21.13 21.13 0 0 0-7.38-8.27 29.65 29.65 0 0 0-10.95-4.2 74.29 74.29 0 0 0-13.36-1.15q-15.27 0-24.95 7.26t-10.18 23.29h-16a53.58 53.58 0 0 1 4.84-19.84zm80.18 39.19c-1 1.87-3 3.23-5.85 4.07a59.84 59.84 0 0 1-7.64 1.79q-10.19 1.77-21 3.18a114.63 114.63 0 0 0-19.73 4.2 38.54 38.54 0 0 0-14.63 8q-5.73 5.2-5.73 14.89a23.4 23.4 0 0 0 2.42 10.82 26.11 26.11 0 0 0 6.49 8.14 28.29 28.29 0 0 0 9.42 5.22 34.3 34.3 0 0 0 10.94 1.78 55.11 55.11 0 0 0 17.57-2.8 43 43 0 0 0 14.64-8.15 38.77 38.77 0 0 0 13.61-30.29v-20.87zm64.41-59.56v22.65h.5a38.5 38.5 0 0 1 16.29-19.21 47.87 47.87 0 0 1 25.71-7.26q13.75 0 23 3.56a36.47 36.47 0 0 1 14.89 10.06 37.5 37.5 0 0 1 7.9 15.91 90 90 0 0 1 2.29 21.13v84.5h-16v-82a75.74 75.74 0 0 0-1.53-15.65 33.2 33.2 0 0 0-5.34-12.6 26 26 0 0 0-10.32-8.41c-4.32-2-9.71-3-16.16-3a40.85 40.85 0 0 0-17.18 3.44 37.24 37.24 0 0 0-12.73 9.41 43.34 43.34 0 0 0-8.14 14.26 57.87 57.87 0 0 0-3.18 17.94v76.62h-16v-131.35zm221.7 131.34v-24.94h-.5a37.77 37.77 0 0 1-7.51 11.71 48.6 48.6 0 0 1-11.33 9 58.19 58.19 0 0 1-13.62 5.73 53.35 53.35 0 0 1-14.38 2q-15 0-26.09-5.48a52.21 52.21 0 0 1-18.46-15 64.39 64.39 0 0 1-10.94-22.14 100.92 100.92 0 0 1 0-53.21 64.3 64.3 0 0 1 10.94-22.07 53.46 53.46 0 0 1 18.46-15.15q11.07-5.6 26.09-5.6a58.46 58.46 0 0 1 14.38 1.78 47.92 47.92 0 0 1 13.11 5.48 46.23 46.23 0 0 1 10.82 9 38.35 38.35 0 0 1 7.25 12.47h.51v-75.34h16v181.76zm-87.94-45.4a56.13 56.13 0 0 0 7.63 18 42.13 42.13 0 0 0 13.37 12.86q8.14 4.93 19.6 4.95 12.74 0 21.51-4.95a42.68 42.68 0 0 0 14.25-12.86 52.81 52.81 0 0 0 7.89-18 85.81 85.81 0 0 0 0-40.47 52.81 52.81 0 0 0-7.89-18 42.45 42.45 0 0 0-14.25-12.85q-8.79-5-21.51-5-11.46 0-19.6 5a41.88 41.88 0 0 0-13.37 12.85 56.13 56.13 0 0 0-7.63 18 85.81 85.81 0 0 0 0 40.47zm215.34-84.16a57.89 57.89 0 0 1 19.47 15 64.91 64.91 0 0 1 12 22 90.63 90.63 0 0 1 0 53.71 64.77 64.77 0 0 1-12 22 56.31 56.31 0 0 1-19.47 14.89Q639 2086 624 2086t-26.6-5.48a56.31 56.31 0 0 1-19.47-14.89 64.58 64.58 0 0 1-12-22 90.42 90.42 0 0 1 0-53.71 64.72 64.72 0 0 1 12-22 57.89 57.89 0 0 1 19.47-15q11.58-5.6 26.6-5.6t26.61 5.52zm-46.71 12.73a44.21 44.21 0 0 0-14.38 12.72 58.06 58.06 0 0 0-8.66 18 73.35 73.35 0 0 0 0 41 57.85 57.85 0 0 0 8.66 18 44.24 44.24 0 0 0 14.38 12.73 44.3 44.3 0 0 0 40.23 0 44.34 44.34 0 0 0 14.38-12.73 58 58 0 0 0 8.65-18 73.35 73.35 0 0 0 0-41 58.27 58.27 0 0 0-8.65-18 44.31 44.31 0 0 0-14.38-12.72 44.22 44.22 0 0 0-40.23 0zm120.92-14.51v30.8h.5q6.12-16 19-24.7t30.67-7.88v16a48.6 48.6 0 0 0-19.86 2.93 44.59 44.59 0 0 0-15.39 9.8 44.06 44.06 0 0 0-10.06 15.15 50.54 50.54 0 0 0-3.57 19.22v70h-16v-131.32zm72.66 87.94a49.6 49.6 0 0 0 7.77 16.68 44.5 44.5 0 0 0 13.49 12.22q8.14 4.83 19.6 4.83 17.56 0 27.49-9.16t13.74-24.44h16q-5.1 22.41-18.71 34.62T838.34 2086q-15.52 0-26.85-5.48a49.39 49.39 0 0 1-18.46-15 65.57 65.57 0 0 1-10.57-22.14 100.81 100.81 0 0 1-3.43-26.61 95.39 95.39 0 0 1 3.43-25.45A68.64 68.64 0 0 1 793 1969a53.22 53.22 0 0 1 18.46-15.78q11.31-6 26.85-6 15.78 0 27 6.37a53.65 53.65 0 0 1 18.19 16.66 69.21 69.21 0 0 1 10.08 23.75 103.73 103.73 0 0 1 2.54 27.11h-101a71.17 71.17 0 0 0 2.36 17.89zm79.43-49a48.08 48.08 0 0 0-8.28-14.89 41 41 0 0 0-13-10.43 37 37 0 0 0-17.31-4 37.58 37.58 0 0 0-17.56 4 41.19 41.19 0 0 0-13 10.43 52.15 52.15 0 0 0-8.52 15 73.82 73.82 0 0 0-4.2 17.44h85a58.33 58.33 0 0 0-3.13-17.55zm93.09-38.94v13.49h-26.79v88.58q0 7.89 2.17 12.35t10.82 5a122 122 0 0 0 13.75-.77v13.5c-2.39 0-4.76.08-7.14.25s-4.75.26-7.12.26q-16 0-22.4-6.24t-6.11-23v-89.85h-22.91v-13.49h22.91v-39.45h16v39.45zm75.29 0v13.49h-26.73v88.58q0 7.89 2.16 12.35t10.82 5a121.86 121.86 0 0 0 13.75-.77v13.5q-3.57 0-7.13.25c-2.38.17-4.75.26-7.13.26q-16 0-22.4-6.24t-6.1-23v-89.85h-22.92v-13.49h22.92v-39.45h16v39.45zm39.45-50.4v25.7h-16v-25.7zm0 50.4v131.34h-16v-131.34z" fill="#575756"/><path d="M71.86 2124.56h24.8L148 2257.73h-25l-12.5-35.25H57.31l-12.5 35.25h-24zm-8.21 80.2h40.66l-20-57.26h-.56zm96.98-80.2h63.59q22 0 33 9.52t11 26.48q0 9.51-2.8 15.76a34.5 34.5 0 0 1-6.52 10.07 25.6 25.6 0 0 1-7.37 5.5q-3.65 1.68-5.32 2.24v.37a24.16 24.16 0 0 1 6.44 1.87 19 19 0 0 1 6.43 4.75 25.87 25.87 0 0 1 4.94 8.49 37.37 37.37 0 0 1 2 13 118.32 118.32 0 0 0 1.77 21.36q1.77 9.6 5.51 13.71h-25a21.75 21.75 0 0 1-3.07-9.52c-.31-3.48-.47-6.83-.47-10.07a95.42 95.42 0 0 0-1.12-15.75 27.51 27.51 0 0 0-4.1-11 17.4 17.4 0 0 0-8.12-6.43 35.68 35.68 0 0 0-13.14-2.06h-34.34v54.84h-23.31zm23.31 60.62h38.24q11.19 0 17-5.32t5.79-15.94a24.77 24.77 0 0 0-1.87-10.36 15 15 0 0 0-5.13-6.24 18.88 18.88 0 0 0-7.46-3 50.13 50.13 0 0 0-8.67-.74h-37.9zm91.95-60.62h107.79v20.15h-42.33v113H318v-113h-42.11z" fill="#23398b"/><path d="M120.35 1563.64v-25.52q75.9-8 98.41-27.07c11.69-9.9 21.38-36.51 21.38-65.31V182.49H0V1802h1082v-238.36H120.35z" fill="#009e9b"/><path d="M240.14 0v182.49h367.57V208q-75.93 4-101.71 24.86c-15.82 12.73-25.67 40.56-25.67 78.35v1198.08h371.39q143.44-3.64 199-29.6 64.58-30.24 125.08-154.5h35l-67.26 238.45h156.37V0z" fill="#23398b"/></svg>